<defs>
<font horiz-adv-x="303" ><font-face
    font-family="riesling"
    units-per-em="1000"
    panose-1="0 0 4 0 0 0 0 0 0 0"
    ascent="766"
    descent="-275"
    alphabetic="0" />
<missing-glyph horiz-adv-x="500" d="M63 0V739H438V0H63ZM125 63H375V677H125V63Z" />
<glyph unicode=" " glyph-name="space" horiz-adv-x="305" />
<glyph unicode="!" glyph-name="exclam" horiz-adv-x="94" d="M65 74H22V608H65V74ZM70 19Q70 -7 44 -7Q18 -7 18 19Q18 45 44 45Q70 45 70 19Z" />
<glyph unicode="&quot;" glyph-name="quotedbl" horiz-adv-x="153" d="M135 505H91V609H135V505ZM65 505H22V609H65V505Z" />
<glyph unicode="#" glyph-name="numbersign" horiz-adv-x="263" d="M245 503L243 494H166L153 420H230L229 411H151L132 299H123L143 411H97L77 299H69L88 411H15L17 420H90L103 494H30L31 503H104L120 591H129L113 503H159L175 591H183L168 503H245ZM157 494H111L98
420H144L157 494Z" />
<glyph unicode="$" glyph-name="dollar" horiz-adv-x="357" d="M351 291Q350 224 304 177T192 125V50H183V125Q81 125 34 222L70 234Q104 140 183 140V439Q144 444 121 468T100 526Q102 560 124 583T179 606H183V676H192V605Q221 600 239 578T258 526Q258 507
249 486L237 491Q245 510 245 525Q245 549 230 567T192 591V477Q260 469 306 415T351 291ZM183 477V592H180Q163 592 151 577T138 535Q138 486 183 477ZM309 291Q309 351 276 390T192 438V140Q242 145 275 188T309 291Z" />
<glyph unicode="%" glyph-name="percent" horiz-adv-x="703" d="M692 163Q692 92 642 42T522 -8Q451 -8 401 42T351 163Q351 234 401 283T522 333Q593 333 642 284T692 163ZM476 606L248 -5L239 -2L467 610L476 606ZM366 446Q366 376 317 326T196 276Q125 276
75 325T25 446Q25 517 75 567T196 617Q267 617 316 567T366 446ZM657 163Q657 231 618 278T522 326Q466 326 426 278T386 163Q386 95 426 47T522 -1Q578 -1 617 47T657 163ZM331 446Q331 514 292 562T196 610Q140 610 100 562T60 446Q60 379 100 331T196 283Q251
283 291 331T331 446Z" />
<glyph unicode="&amp;" glyph-name="ampersand" horiz-adv-x="470" d="M521 -2H469L413 79Q347 -9 236 -9Q145 -9 80 54T15 206Q15 273 54 328T157 407Q166 410 182 416L151 459Q136 485 137 516Q139 557 167 586T236 615Q277 615 306 586T335 516Q335 461 291
437Q283 430 231 418L408 162Q412 190 412 206Q412 280 375 337L462 387L465 380L414 350Q457 289 457 206Q457 161 437 119L521 -2ZM327 516Q327 554 301 581T237 608Q212 608 195 586T177 526Q177 501 185 485L226 426Q267 435 280 440Q327 462 327 516ZM391
110L187 408Q179 406 161 398Q100 376 62 324T23 206Q23 122 87 61T236 0Q285 0 327 30T391 110Z" />
<glyph unicode="&apos;" glyph-name="quotesingle" horiz-adv-x="90" d="M65 505H22V609H65V505Z" />
<glyph unicode="(" glyph-name="parenleft" horiz-adv-x="135" d="M120 -70L113 -73Q60 21 39 104T18 301Q19 413 40 493T113 666L120 663Q75 582 65 491Q63 468 62 301Q62 284 61 244Q61 211 61 193Q61 37 120 -70Z" />
<glyph unicode=")" glyph-name="parenright" horiz-adv-x="136" d="M117 301Q117 185 97 104Q76 20 23 -73L16 -70Q52 -4 65 63Q75 115 75 197Q75 215 75 247Q74 285 74 301Q73 464 70 491Q61 581 16 663L23 666Q75 574 96 493T117 301Z" />
<glyph unicode="*" glyph-name="asterisk" horiz-adv-x="203" d="M171 524H119L156 488Q159 485 159 482Q159 473 149 473Q146 473 143 476L108 511V461Q108 453 99 453Q90 453 90 461V513L53 476Q50 473 47 473Q38 473 38 482Q38 485 41 488L77 524H26Q18 524
18 533Q18 542 26 542H77L40 579Q37 582 37 585Q37 594 46 594Q49 594 52 591L90 553V606Q90 614 99 614Q108 614 108 606V554L143 591Q146 594 149 594Q158 594 158 585Q158 582 156 579L120 542H171Q180 542 180 533Q180 524 171 524Z" />
<glyph unicode="+" glyph-name="plus" horiz-adv-x="203" d="M178 260H123V205H80V260H25V303H80V358H123V303H178V260Z" />
<glyph unicode="," glyph-name="comma" horiz-adv-x="123" d="M92 21Q92 -37 48 -56L44 -46Q75 -34 79 -2Q73 -8 63 -8Q52 -8 44 1T35 21Q35 50 63 50Q74 50 83 42T92 21Z" />
<glyph unicode="-" glyph-name="hyphen" horiz-adv-x="203" d="M178 260H25V303H178V260Z" />
<glyph unicode="." glyph-name="period" horiz-adv-x="123" d="M92 21Q92 10 83 1T63 -8Q52 -8 44 1T35 21Q35 50 63 50Q74 50 83 42T92 21Z" />
<glyph unicode="/" glyph-name="slash" horiz-adv-x="278" d="M258 606L30 -5L22 -2L250 610L258 606Z" />
<glyph unicode="0" glyph-name="zero" horiz-adv-x="667" d="M650 309Q650 177 560 83T340 -12Q208 -12 114 78T19 298Q19 429 109 524T330 619Q461 619 555 529T650 309ZM609 309Q609 435 527 523T330 610Q218 608 140 517T61 298Q61 173 143 85T339 -3Q452 -3
530 89T609 309Z" />
<glyph unicode="1" glyph-name="one" horiz-adv-x="98" d="M85 0H42V593L12 563L4 571L42 609H85V0Z" />
<glyph unicode="2" glyph-name="two" horiz-adv-x="357" d="M441 78Q438 53 426 34Q398 -10 333 -11Q272 -12 232 4T137 21Q76 21 18 -12Q17 0 17 18Q17 110 50 200Q101 342 223 437Q250 457 276 477Q298 498 298 526Q298 564 280 586T237 608Q200 608 173 581T146
515Q146 492 157 472L151 470Q140 490 140 516Q140 557 169 586T239 615Q280 615 308 586T338 516Q340 479 310 446Q275 415 241 385Q58 222 35 16Q85 66 137 66Q169 66 196 56Q199 54 243 33Q292 9 332 10Q420 12 432 78H441Z" />
<glyph unicode="3" glyph-name="three" horiz-adv-x="399" d="M401 172Q401 71 329 -1T156 -73Q54 -73 -18 -1T-90 172Q-90 224 -70 270L-62 266Q-81 220 -81 172Q-81 74 -12 5T156 -64Q240 -64 298 5T357 172Q357 270 299 337T157 404Q102 404 78 394L217 600H22V609H274L150
417Q258 417 329 346T401 172Z" />
<glyph unicode="4" glyph-name="four" horiz-adv-x="249" d="M240 210H200V0H157V210H2L200 663V218H240V210ZM157 218V541L16 218H157Z" />
<glyph unicode="5" glyph-name="five" horiz-adv-x="470" d="M495 172Q495 71 423 -1T250 -73Q148 -73 76 -1T4 172Q4 224 24 270L32 266Q13 220 13 172Q13 74 82 5T250 -64Q334 -64 392 5T451 172Q451 270 393 337T250 404Q196 404 165 392L113 370L160 609H367V600H204L166
407Q210 417 243 417Q351 417 423 346T495 172Z" />
<glyph unicode="6" glyph-name="six" horiz-adv-x="545" d="M534 240Q534 134 459 59T279 -16Q174 -16 106 54T23 240Q18 279 18 317Q18 468 89 569T276 682V673Q171 649 116 554Q75 482 67 383Q144 495 279 495Q384 495 459 421T534 240ZM483 240Q483 341 423
412T279 484Q194 484 135 413T76 240Q76 139 135 67T279 -5Q362 -5 422 67T483 240Z" />
<glyph unicode="7" glyph-name="seven" horiz-adv-x="260" d="M233 609L34 -78H-10L186 600H27V609H233Z" />
<glyph unicode="8" glyph-name="eight" horiz-adv-x="470" d="M457 206Q457 118 392 55T236 -9Q145 -9 80 54T15 206Q15 273 54 328T157 407Q183 417 197 419Q134 450 137 516Q139 557 167 586T236 615Q277 615 306 586T335 516Q335 461 292 437Q364 415 410 350T457
206ZM327 516Q327 554 301 581T237 608Q212 608 195 586T177 526Q177 452 250 445Q260 444 280 440Q327 462 327 516ZM412 206Q412 289 366 343T246 406Q227 408 211 414Q195 410 161 398Q100 376 62 324T23 206Q23 122 87 61T236 0Q308 0 360 60T412 206Z" />
<glyph unicode="9" glyph-name="nine" horiz-adv-x="545" d="M529 370Q534 332 534 294Q534 143 463 41T276 -71V-63Q381 -38 436 57Q477 129 484 227Q408 116 272 116Q167 116 92 190T17 370Q17 476 92 551T272 626Q377 626 446 556T529 370ZM476 370Q476 471
416 543T272 616Q189 616 129 544T69 370Q69 270 129 198T272 126Q357 126 416 197T476 370Z" />
<glyph unicode=":" glyph-name="colon" horiz-adv-x="123" d="M92 312Q92 301 83 292T63 283Q52 283 44 292T35 312Q35 341 63 341Q74 341 83 333T92 312ZM92 21Q92 10 83 1T63 -8Q52 -8 44 1T35 21Q35 50 63 50Q74 50 83 42T92 21Z" />
<glyph unicode=";" glyph-name="semicolon" horiz-adv-x="123" d="M92 312Q92 301 83 292T63 283Q52 283 44 292T35 312Q35 341 63 341Q74 341 83 333T92 312ZM92 21Q92 -37 48 -56L44 -46Q75 -34 79 -2Q73 -8 63 -8Q52 -8 44 1T35 21Q35 50 63 50Q74 50 83 42T92 21Z" />
<glyph unicode="&lt;" glyph-name="less" horiz-adv-x="174" d="M152 204L122 174L13 283L122 391L152 361L74 283L152 204Z" />
<glyph unicode="=" glyph-name="equal" horiz-adv-x="203" d="M178 303H25V346H178V303ZM178 222H25V265H178V222Z" />
<glyph unicode="&gt;" glyph-name="greater" horiz-adv-x="174" d="M164 283L56 174L25 204L103 283L25 361L56 391L164 283Z" />
<glyph unicode="?" glyph-name="question" horiz-adv-x="470" d="M457 403Q457 329 407 266Q350 196 262 189V72H218V203H246Q319 211 365 265T412 403Q412 488 360 549T236 610Q152 610 88 549T23 403H15Q15 492 79 555T236 618Q327 618 392 555T457 403ZM266
19Q266 -7 240 -7Q214 -7 214 19Q214 45 240 45Q266 45 266 19Z" />
<glyph unicode="@" glyph-name="at" horiz-adv-x="659" d="M642 310Q642 246 600 197T499 148H464V203Q413 137 329 137Q258 137 208 187T157 308Q157 379 207 429T329 479Q400 479 449 429T499 308V163Q539 163 570 207T601 310Q601 436 519 524T323 611Q211
609 133 518T55 300Q55 174 137 87T332 -1Q435 -1 510 57L521 38Q455 -10 332 -10Q201 -10 107 80T13 300Q13 431 103 525T323 620Q454 620 548 530T642 310ZM464 308Q464 375 425 423T329 472Q272 472 232 424T192 308Q192 240 232 192T329 143Q385 143 424 191T464
308Z" />
<glyph unicode="A" glyph-name="A" horiz-adv-x="246" d="M238 0H194L157 211H52L15 0H6L123 657L238 0ZM156 220L105 510L54 220H156Z" />
<glyph unicode="B" glyph-name="B" horiz-adv-x="402" d="M377 199Q377 117 309 59T143 0H29V609H143Q201 609 244 577T287 500Q287 464 259 436T187 397Q269 383 323 328T377 199ZM243 500Q243 539 211 569T143 599H72V400H143Q184 400 213 429T243 500ZM333
199Q333 277 278 333T143 389H72V10H143Q222 10 277 65T333 199Z" />
<glyph unicode="C" glyph-name="C" horiz-adv-x="628" d="M599 133Q557 66 489 27T340 -12Q208 -12 114 78T19 298Q19 429 109 524T330 619Q411 619 482 582T597 479L570 463Q533 531 469 571T330 610Q218 608 140 517T61 298Q61 173 143 85T339 -3Q413 -3 474
38T571 150L599 133Z" />
<glyph unicode="D" glyph-name="D" horiz-adv-x="486" d="M454 309Q454 183 364 92T145 0H21V607H136Q266 607 360 520T454 309ZM412 309Q412 429 331 513T136 597H64V10H145Q257 10 334 97T412 309Z" />
<glyph unicode="E" glyph-name="E" horiz-adv-x="203" d="M193 0H21V609H174V600H64V400H193V391H64V9H193V0Z" />
<glyph unicode="F" glyph-name="F" horiz-adv-x="202" d="M192 390H64V0H21V608H173V599H64V399H192V390Z" />
<glyph unicode="G" glyph-name="G" horiz-adv-x="667" d="M650 309Q650 177 560 83T340 -12Q208 -12 114 78T19 298Q19 429 109 524T330 619Q403 619 478 580T597 479L570 463Q533 531 469 571T330 610Q218 608 140 517T61 298Q61 173 143 85T339 -3Q452 -3 530
89T609 309Q609 350 598 391H331V400H637Q650 353 650 309Z" />
<glyph unicode="H" glyph-name="H" horiz-adv-x="235" d="M217 0H173V391H64V0H21V609H64V400H173V609H217V0Z" />
<glyph unicode="I" glyph-name="I" horiz-adv-x="98" d="M65 0H22V609H65V0Z" />
<glyph unicode="J" glyph-name="J" horiz-adv-x="246" d="M225 88Q225 47 195 17T124 -13Q82 -13 53 17T23 88Q23 129 52 157T121 186V177Q84 177 58 151T31 88Q31 50 58 25T124 0Q149 0 165 25T182 88V609H225V88Z" />
<glyph unicode="K" glyph-name="K" horiz-adv-x="234" d="M224 0H179L64 380V0H21V608H64V397L204 607H216L95 427L224 0Z" />
<glyph unicode="L" glyph-name="L" horiz-adv-x="203" d="M193 0H21V609H64V9H193V0Z" />
<glyph unicode="M" glyph-name="M" horiz-adv-x="355" d="M343 0H300V454L167 -66L35 449V0H26V657L184 40L343 656V0Z" />
<glyph unicode="N" glyph-name="N" horiz-adv-x="275" d="M251 -65L28 515V0H19V657L243 79V609H251V-65Z" />
<glyph unicode="O" glyph-name="O" horiz-adv-x="664" d="M648 308Q648 177 558 83T338 -12Q207 -12 113 78T19 297Q19 428 109 522T329 617Q460 617 554 527T648 308ZM607 308Q607 434 525 522T330 609Q218 607 140 516T61 297Q61 172 143 85T338 -3Q450 -3 528
88T607 308Z" />
<glyph unicode="P" glyph-name="P" horiz-adv-x="400" d="M376 410Q376 332 314 273Q247 209 143 209H72V0H29V608H143Q239 608 307 550T376 410ZM331 410Q331 487 276 542T143 597H72V220H143Q221 220 276 275T331 410Z" />
<glyph unicode="Q" glyph-name="Q" horiz-adv-x="667" d="M783 -98Q786 -133 763 -159T700 -186Q535 -186 449 8Q397 -12 340 -12Q208 -12 114 78T19 298Q19 429 109 524T330 619Q461 619 555 529T650 309Q650 219 605 143T486 25Q583 -170 710 -170Q735 -170
756 -149T775 -98Q772 -69 750 -51T697 -32V-23Q731 -23 755 -44T783 -98ZM609 309Q609 435 527 523T330 610Q218 608 140 517T61 298Q61 173 143 85T339 -3Q393 -3 442 20Q394 115 310 115Q237 115 190 85L184 94Q239 130 307 130Q415 130 477 40Q537 82 573 154T609
309Z" />
<glyph unicode="R" glyph-name="R" horiz-adv-x="402" d="M636 -98Q636 -186 545 -186Q389 -186 306 -17Q283 51 260 119Q220 209 143 209H72V0H29V609H143Q240 609 308 551T377 410Q377 346 331 291Q282 231 205 214Q254 194 293 118Q318 60 344 2Q385 -80 444
-126Q499 -170 555 -170Q583 -170 603 -154Q627 -134 627 -98Q627 -69 601 -51T542 -32V-23Q577 -23 606 -44T636 -98ZM333 410Q333 488 278 543T143 598H72V220H143Q222 220 277 275T333 410Z" />
<glyph unicode="S" glyph-name="S" horiz-adv-x="470" d="M457 206Q457 118 392 55T236 -9Q145 -9 80 54T15 206Q15 273 54 328T157 407L161 398Q100 376 62 324T23 206Q23 122 87 61T236 0Q308 0 360 60T412 206Q412 289 366 343T246 406Q195 412 165 442T137
516Q139 557 167 586T236 615Q277 615 306 586T335 516Q335 492 323 470L318 472Q329 492 329 515Q329 553 302 580T237 608Q212 608 195 586T177 526Q177 452 250 445Q339 436 398 366T457 206Z" />
<glyph unicode="T" glyph-name="T" horiz-adv-x="235" d="M227 600H140V0H97V600H10V609H227V600Z" />
<glyph unicode="U" glyph-name="U" horiz-adv-x="245" d="M225 88Q225 47 196 17T124 -13Q83 -13 53 17T23 88V608H66V88Q66 50 83 25T124 0Q163 0 190 25T217 88V608H225V88Z" />
<glyph unicode="V" glyph-name="V" horiz-adv-x="245" d="M235 608L118 -48L3 608H48L137 98L226 608H235Z" />
<glyph unicode="W" glyph-name="W" horiz-adv-x="400" d="M382 609L265 -48L192 365L119 -48L3 609H48L137 98L188 390L150 609H194L210 515L227 609H236L215 490L283 98L373 609H382Z" />
<glyph unicode="X" glyph-name="X" horiz-adv-x="285" d="M280 0H233L131 313L11 0H2L127 327L36 609H83L152 393L235 609H245L157 379L280 0Z" />
<glyph unicode="Y" glyph-name="Y" horiz-adv-x="249" d="M224 608L144 217V0H101V171L12 608H56L136 219L216 608H224Z" />
<glyph unicode="Z" glyph-name="Z" horiz-adv-x="263" d="M238 0H14L191 600H41V609H238L60 9H238V0Z" />
<glyph unicode="[" glyph-name="bracketleft" horiz-adv-x="127" d="M112 -35H21V643H111V635H64V-26H112V-35Z" />
<glyph unicode="\" glyph-name="backslash" horiz-adv-x="278" d="M258 -2L250 -5L22 606L30 610L258 -2Z" />
<glyph unicode="]" glyph-name="bracketright" horiz-adv-x="127" d="M108 -35H17V-26H64V635H17V643H108V-35Z" />
<glyph unicode="^" glyph-name="asciicircum" horiz-adv-x="123" d="M115 656L106 646L63 690L20 647L11 657L63 708L115 656Z" />
<glyph unicode="_" glyph-name="underscore" horiz-adv-x="400" d="M416 -107H0V-98H416V-107Z" />
<glyph unicode="`" glyph-name="grave" horiz-adv-x="85" d="M72 657L63 647L11 699L21 708L72 657Z" />
<glyph unicode="a" glyph-name="a" horiz-adv-x="457" d="M446 0H402V70Q338 -14 232 -14Q144 -14 81 49T18 200Q18 289 81 351T232 414Q321 414 383 352T446 200V0ZM403 200Q403 285 353 345T232 405Q162 405 112 345T62 200Q62 115 112 55T232 -5Q303 -5 353
55T403 200Z" />
<glyph unicode="b" glyph-name="b" horiz-adv-x="456" d="M444 199Q444 111 382 49T231 -14Q143 -14 81 48T18 199V608H62V328Q122 412 231 412Q320 412 382 350T444 199ZM401 199Q401 284 352 343T231 403Q161 403 112 344T62 199Q62 115 111 55T231 -5Q301 -5
351 55T401 199Z" />
<glyph unicode="c" glyph-name="c" horiz-adv-x="443" d="M422 107Q395 54 344 22T231 -10Q143 -10 81 52T18 203Q18 292 80 354T231 416Q291 416 341 385T419 303L385 288Q364 342 323 374T231 407Q161 407 112 348T62 203Q62 118 111 58T231 -2Q282 -2 324 32T386
120L422 107Z" />
<glyph unicode="d" glyph-name="d" horiz-adv-x="457" d="M439 200Q439 112 377 49T225 -14Q137 -14 74 49T11 200Q11 289 74 351T225 414Q334 414 396 329V609H439V200ZM396 200Q396 285 346 345T225 405Q155 405 105 345T55 200Q55 115 105 55T225 -5Q296 -5
346 55T396 200Z" />
<glyph unicode="e" glyph-name="e" horiz-adv-x="450" d="M423 104Q396 51 345 19T232 -14Q144 -14 81 49T18 200Q18 289 81 351T232 414Q293 414 343 383T421 300L66 155Q79 86 125 41T232 -5Q284 -5 325 28T388 117L423 104ZM383 296Q362 346 322 375T232 405Q162
405 112 345T62 200Q62 188 64 164L383 296Z" />
<glyph unicode="f" glyph-name="f" horiz-adv-x="169" d="M163 391H65V0H22V497Q22 546 56 580T140 615H163V606H140Q109 606 87 574T65 497V400H163V391Z" />
<glyph unicode="g" glyph-name="g" horiz-adv-x="345" d="M510 0Q510 -102 438 -173T264 -245Q163 -245 91 -174T19 0Q19 52 39 97L47 94Q28 48 28 0Q28 -98 97 -167T264 -237Q348 -237 407 -168T466 0Q466 98 407 167T264 237Q186 237 117 185Q87 162 59 163Q17
164 17 201Q17 230 52 249Q82 266 114 266Q122 266 127 265Q97 290 97 329Q97 363 121 387T181 412Q240 412 259 357Q276 359 287 381Q297 400 295 418L333 398Q328 377 302 362Q281 350 262 349Q264 337 264 329Q264 294 240 270T181 245Q159 245 142 256Q130
258 120 258Q95 258 76 246T57 213Q57 183 87 183Q100 183 116 195Q182 245 264 245Q366 245 438 174T510 0ZM221 329Q221 359 209 381T181 403Q165 403 153 381T141 329Q141 299 153 277T181 254Q197 254 209 276T221 329Z" />
<glyph unicode="h" glyph-name="h" horiz-adv-x="251" d="M230 0H188V325Q188 358 175 381T144 404Q114 404 92 385T65 336V0H22V608H65V364Q90 413 144 413Q179 413 204 387T230 325V0Z" />
<glyph unicode="i" glyph-name="i" horiz-adv-x="90" d="M67 452Q67 430 43 430Q22 430 22 452Q22 474 43 474Q67 474 67 452ZM66 0H22V400H66V0Z" />
<glyph unicode="j" glyph-name="j" horiz-adv-x="88" d="M67 452Q67 430 43 430Q22 430 22 452Q22 474 43 474Q67 474 67 452ZM66 -97Q66 -147 31 -182T-53 -217H-77V-208H-53Q-23 -208 -1 -175T22 -97V400H66V-97Z" />
<glyph unicode="k" glyph-name="k" horiz-adv-x="245" d="M236 0H188L65 266V0H22V609H65V278L203 400H216L99 297L236 0Z" />
<glyph unicode="l" glyph-name="l" horiz-adv-x="90" d="M65 0H22V608H65V0Z" />
<glyph unicode="m" glyph-name="m" horiz-adv-x="415" d="M397 0H353V322Q353 354 340 377T310 401Q279 401 257 381T231 330V0H188V322Q188 355 175 378T144 401Q114 401 92 382T65 333V0H22V400H65V361Q90 410 144 410Q207 410 226 350Q247 410 310 410Q345
410 371 384T397 322V0Z" />
<glyph unicode="n" glyph-name="n" horiz-adv-x="251" d="M230 0H188V321Q188 353 175 376T144 400Q114 400 92 381T65 331V0H22V399H65V360Q90 409 144 409Q179 409 204 383T230 321V0Z" />
<glyph unicode="o" glyph-name="o" horiz-adv-x="456" d="M444 199Q444 111 382 49T231 -14Q143 -14 81 48T18 199Q18 288 80 350T231 412Q320 412 382 350T444 199ZM401 199Q401 284 352 343T231 403Q161 403 112 344T62 199Q62 115 111 55T231 -5Q301 -5 351
55T401 199Z" />
<glyph unicode="p" glyph-name="p" horiz-adv-x="457" d="M446 198Q446 110 384 47T232 -16Q122 -16 62 70V-210H18V198Q18 287 80 349T232 412Q321 412 383 350T446 198ZM403 198Q403 283 353 343T232 403Q162 403 112 343T62 198Q62 113 112 53T232 -7Q303 -7
353 53T403 198Z" />
<glyph unicode="q" glyph-name="q" horiz-adv-x="457" d="M443 -210H399V70Q339 -16 229 -16Q140 -16 78 46T15 198Q15 287 77 349T229 412Q318 412 380 350T443 198V-210ZM399 198Q399 283 349 343T229 403Q158 403 108 343T58 198Q58 113 108 53T229 -7Q299
-7 349 53T399 198Z" />
<glyph unicode="r" glyph-name="r" horiz-adv-x="150" d="M138 384Q138 358 111 358Q84 358 84 384Q84 392 90 400Q70 392 65 367V0H22V400H65V390Q80 411 111 411Q138 411 138 384Z" />
<glyph unicode="s" glyph-name="s" horiz-adv-x="356" d="M336 0Q336 -102 264 -173T90 -245Q-11 -245 -83 -174T-155 0Q-155 52 -135 97L-127 94Q-146 48 -146 0Q-146 -98 -77 -167T90 -237Q174 -237 233 -168T292 0Q292 169 122 201Q71 211 41 239T13 310Q15
352 43 381T112 410Q153 410 182 381T211 310Q211 286 200 264L195 267Q205 286 205 310Q205 348 178 375T114 403Q89 403 71 381T53 321Q53 254 127 240Q222 222 277 162Q336 99 336 0Z" />
<glyph unicode="t" glyph-name="t" horiz-adv-x="125" d="M118 391H86V0H43V391H9V400H43V506H86V400H118V391Z" />
<glyph unicode="u" glyph-name="u" horiz-adv-x="216" d="M188 78Q188 42 163 16T101 -10Q65 -10 39 16T13 78V400H22V78Q22 46 45 23T101 -1Q118 -1 131 22T144 78V400H188V78Z" />
<glyph unicode="v" glyph-name="v" horiz-adv-x="228" d="M225 400L117 -48L9 400H53L135 63L216 400H225Z" />
<glyph unicode="w" glyph-name="w" horiz-adv-x="383" d="M362 400L252 -48L184 231L117 -48L9 400H53L135 63L180 250L144 400H189L203 343L217 400H226L207 323L270 63L352 400H362Z" />
<glyph unicode="x" glyph-name="x" horiz-adv-x="245" d="M230 0H182L104 169L27 0H17L99 180L-1 400H47L123 233L199 400H210L128 222L230 0Z" />
<glyph unicode="y" glyph-name="y" horiz-adv-x="228" d="M225 399L77 -210H69L111 -30L9 399H53L135 63L216 399H225Z" />
<glyph unicode="z" glyph-name="z" horiz-adv-x="245" d="M238 400L59 9H236V0H8L186 391H29V400H238Z" />
<glyph unicode="{" glyph-name="braceleft" horiz-adv-x="163" d="M135 -25L133 -34Q38 -14 17 82Q15 91 15 100Q15 130 45 174T75 243Q75 286 32 302Q75 316 75 364Q75 388 45 432T15 507Q15 516 17 525Q37 620 133 642L135 632Q44 613 26 523Q20 491 65 447Q113
400 113 378Q113 369 109 361Q93 325 55 303Q92 284 109 246Q113 238 113 229Q113 207 69 164T25 93Q25 50 60 16Q91 -16 135 -25Z" />
<glyph unicode="|" glyph-name="bar" horiz-adv-x="90" d="M65 0H22V608H65V0Z" />
<glyph unicode="}" glyph-name="braceright" horiz-adv-x="163" d="M136 82Q115 -14 20 -34L18 -25Q62 -16 95 17T128 93Q128 121 84 164T40 229Q40 238 44 246Q61 284 98 303Q60 325 44 361Q40 369 40 378Q40 400 88 447Q133 491 127 523Q109 614 18 632L20 642Q116
620 136 525Q138 516 138 507Q138 477 108 433T78 364Q78 316 121 302Q78 286 78 243Q78 219 108 175T138 100Q138 91 136 82Z" />
<glyph unicode="~" glyph-name="asciitilde" horiz-adv-x="144" d="M128 690Q118 664 93 663Q85 663 73 670T50 676Q28 675 23 664L14 668Q23 692 49 694Q58 695 71 688T92 680Q115 681 121 693L128 690Z" />
<glyph unicode="&#xa0;" glyph-name="nbspace" horiz-adv-x="305" />
<glyph unicode="&#xa1;" glyph-name="exclamdown" horiz-adv-x="94" d="M70 588Q70 562 44 562Q18 562 18 588Q18 614 44 614Q70 614 70 588ZM65 -1H22V533H65V-1Z" />
<glyph unicode="&#xa2;" glyph-name="cent" horiz-adv-x="437" d="M422 297Q395 245 346 213T235 180V75H226V180Q139 182 79 244T18 393Q18 481 78 542T226 606V708H235V606Q294 605 343 574T419 493L385 478Q365 531 325 563T235 597V189Q285 190 326 223T386
310L422 297ZM226 189V597Q158 595 110 536T62 393Q62 310 110 251T226 189Z" />
<glyph unicode="&#xa3;" glyph-name="sterling" horiz-adv-x="282" d="M270 516Q270 490 259 470L254 472Q264 491 264 515Q264 553 237 580T173 608Q148 608 133 588Q116 565 116 526V270H170V260H116V9H244V0H72V260H17V270H72V516Q72 557 101 586T171 615Q212
615 241 586T270 516Z" />
<glyph unicode="&#xa4;" glyph-name="currency" horiz-adv-x="456" d="M444 199Q444 82 343 18L404 -86L396 -91L335 13Q284 -14 231 -14Q181 -14 133 10L74 -91L65 -86L124 14Q76 42 47 91T18 199Q18 319 119 380L65 471L73 477L127 385Q172 412 231 412Q290
412 341 382L397 477L404 471L349 377Q444 314 444 199ZM401 199Q401 284 352 343T231 403Q161 403 112 344T62 199Q62 115 111 55T231 -5Q301 -5 351 55T401 199Z" />
<glyph unicode="&#xa5;" glyph-name="yen" horiz-adv-x="249" d="M224 608L144 217H198V174H144V137H198V93H144V0H101V93H45V137H101V171L100 174H45V217H91L12 608H56L136 219L216 608H224Z" />
<glyph unicode="&#xa7;" glyph-name="section" horiz-adv-x="357" d="M336 150Q334 83 288 35T177 -16Q67 -19 18 81L54 93Q89 -6 177 -1Q226 2 259 46T293 150Q293 166 290 179Q244 127 177 125Q66 122 18 222L54 234Q89 136 177 140Q245 143 278 220Q249 286
177 297Q81 312 84 385Q86 433 124 455Q82 478 84 526Q85 560 107 583T163 606Q175 606 177 605Q205 600 224 578T243 526Q243 509 233 486L222 491Q230 513 230 525Q230 549 215 567T177 591Q175 591 164 592Q147 592 135 577T123 535Q123 484 177 477Q245 468
291 414T336 291Q336 257 320 224Q337 187 336 150ZM293 291Q293 350 261 390T177 438Q166 440 145 446Q123 431 123 394Q123 344 177 336Q246 326 292 271Q293 278 293 291Z" />
<glyph unicode="&#xa8;" glyph-name="dieresis" horiz-adv-x="149" d="M130 671Q130 663 122 656T106 648Q97 648 90 655T83 671Q83 695 106 695Q114 695 122 688T130 671ZM69 671Q69 663 62 656T45 648Q36 648 29 655T22 671Q22 695 45 695Q54 695 61 688T69 671Z" />
<glyph unicode="&#xa9;" glyph-name="copyright" horiz-adv-x="628" d="M643 303Q643 173 552 82T331 -9Q202 -9 111 82T20 303Q20 432 111 523T331 614Q460 614 551 523T643 303ZM625 303Q625 424 539 510T331 597Q210 597 124 511T37 303Q37 182 123 96T331
9Q453 9 539 95T625 303ZM557 167Q480 46 347 46Q240 46 163 120T85 300Q85 407 159 484T338 561Q477 561 556 446L532 432Q502 486 450 518T339 550Q249 549 186 476T123 300Q123 198 188 128T346 57Q405 57 455 91T533 182L557 167Z" />
<glyph unicode="&#xaa;" glyph-name="ordfeminine" horiz-adv-x="297" d="M290 348H261V393Q220 339 151 339Q93 339 53 379T12 477Q12 535 52 576T151 617Q209 617 249 576T290 477V348ZM262 477Q262 532 230 571T151 611Q105 611 73 572T40 477Q40 422 72 383T151
344Q197 344 229 383T262 477Z" />
<glyph unicode="&#xab;" glyph-name="guillemotleft" horiz-adv-x="226" d="M204 204L183 174L107 283L183 391L204 361L150 283L204 204ZM121 204L99 174L23 283L99 391L121 361L66 283L121 204Z" />
<glyph unicode="&#xac;" glyph-name="logicalnot" horiz-adv-x="203" d="M188 212H152V260H13V303H188V212Z" />
<glyph unicode="&#xae;" glyph-name="registered" horiz-adv-x="441" d="M424 412Q424 327 365 267T219 207Q134 207 74 267T14 412Q14 498 74 557T219 617Q305 617 364 558T424 412ZM407 412Q407 490 352 545T219 600Q142 600 87 545T31 412Q31 335 86 280T219
224Q297 224 352 279T407 412ZM325 468Q325 436 303 407T244 366Q265 352 283 314Q297 285 310 255H277Q266 288 255 321Q236 361 201 361H170V255H139V574H201Q252 574 288 543T325 468ZM294 468Q294 506 267 533T201 560H170V375H201Q239 375 266 402T294 468Z"
/>
<glyph unicode="&#xaf;" glyph-name="overscore" horiz-adv-x="151" d="M139 670H11L12 683H138L139 670Z" />
<glyph unicode="0;" glyph-name="degree" horiz-adv-x="157" d="M140 548Q140 520 121 502T75 483Q47 483 29 501T10 548Q10 575 28 594T75 613Q102 613 121 594T140 548ZM131 548Q131 571 115 587T75 604Q51 604 35 588T18 548Q18 525 34 508T75 491Q98 491
114 508T131 548Z" />
<glyph unicode="1;" glyph-name="plusminus" horiz-adv-x="203" d="M178 260H123V205H80V260H25V303H80V358H123V303H178V260ZM178 110H25V154H178V110Z" />
<glyph unicode="4;" glyph-name="acute" horiz-adv-x="85" d="M72 699L20 647L11 657L63 708L72 699Z" />
<glyph unicode="5;" glyph-name="mu" horiz-adv-x="216" d="M188 78Q188 42 163 16T101 -10Q47 -10 23 39V15Q23 12 30 -3T37 -29Q37 -58 21 -58Q1 -58 1 -30Q1 -20 7 -5T13 15V400H22V78Q22 46 45 23T101 -1Q118 -1 131 22T144 78V400H188V78Z" />
<glyph unicode="6;" glyph-name="paragraph" horiz-adv-x="304" d="M282 0H238L239 561H191V0H148V321Q89 319 46 361T3 464Q3 524 44 566T148 609H282V0Z" />
<glyph unicode="7;" glyph-name="middot" horiz-adv-x="123" d="M92 271Q92 260 83 252T63 243Q52 243 44 251T35 271Q35 300 63 300Q74 300 83 292T92 271Z" />
<glyph unicode="8;" glyph-name="cedilla" horiz-adv-x="143" d="M122 -133Q122 -164 91 -182Q64 -198 26 -198V-157Q43 -166 64 -166Q109 -166 109 -133Q109 -83 30 -83V17H57V-57Q76 -57 97 -77Q122 -101 122 -133Z" />
<glyph unicode="a;" glyph-name="ordmasculine" horiz-adv-x="297" d="M289 477Q289 420 249 380T150 339Q92 339 52 379T12 477Q12 535 52 575T150 616Q208 616 248 576T289 477ZM261 477Q261 532 229 571T150 610Q105 610 73 571T40 477Q40 422 72 383T150
344Q196 344 228 383T261 477Z" />
<glyph unicode="b;" glyph-name="guillemotright" horiz-adv-x="226" d="M201 283L125 174L103 204L158 283L103 361L125 391L201 283ZM117 283L42 174L20 204L75 283L20 361L42 391L117 283Z" />
<glyph unicode="f;" glyph-name="questiondown" horiz-adv-x="470" d="M257 595Q257 569 231 569Q205 569 205 595Q205 621 231 621Q257 621 257 595ZM457 210Q457 122 392 59T236 -4Q145 -4 80 58T15 210Q15 285 65 348Q121 418 210 425V542H253V411Q235
411 225 410Q152 402 106 349Q59 293 59 210Q59 125 111 65T236 4Q320 4 384 65T448 210H457Z" />
<glyph unicode="0;" glyph-name="Agrave" horiz-adv-x="246" d="M124 676L116 666L63 718L73 727L124 676ZM238 0H194L157 211H52L15 0H6L123 657L238 0ZM156 220L105 510L54 220H156Z" />
<glyph unicode="1;" glyph-name="Aacute" horiz-adv-x="246" d="M182 723L130 670L121 680L172 731L182 723ZM238 0H194L157 211H52L15 0H6L123 657L238 0ZM156 220L105 510L54 220H156Z" />
<glyph unicode="2;" glyph-name="Acircumflex" horiz-adv-x="246" d="M175 656L166 646L123 690L80 647L71 657L123 708L175 656ZM238 0H194L157 211H52L15 0H6L123 657L238 0ZM156 220L105 510L54 220H156Z" />
<glyph unicode="3;" glyph-name="Atilde" horiz-adv-x="246" d="M178 690Q168 664 143 663Q135 663 123 670T101 676Q78 675 73 664L64 668Q74 692 99 694Q108 695 121 687T143 680Q165 681 171 693L178 690ZM238 0H194L157 211H52L15 0H6L123 657L238 0ZM156
220L105 510L54 220H156Z" />
<glyph unicode="4;" glyph-name="Adieresis" horiz-adv-x="246" d="M177 671Q177 663 169 656T153 648Q144 648 137 655T130 671Q130 695 153 695Q161 695 169 688T177 671ZM116 671Q116 663 108 656T92 648Q83 648 76 655T69 671Q69 695 92 695Q100 695 108
688T116 671ZM238 0H194L157 211H52L15 0H6L123 657L238 0ZM156 220L105 510L54 220H156Z" />
<glyph unicode="5;" glyph-name="Aring" horiz-adv-x="246" d="M171 718Q171 698 157 684T123 669Q103 669 89 683T74 718Q74 738 88 752T123 766Q143 766 157 752T171 718ZM238 0H194L157 211H52L15 0H6L123 657L238 0ZM158 718Q158 753 123 753Q87 753 87
718Q87 703 97 693T123 682Q158 682 158 718ZM156 220L105 510L54 220H156Z" />
<glyph unicode="6;" glyph-name="AE" horiz-adv-x="388" d="M370 0H194L195 211H90L15 0H6L221 608L351 609V600H242V400H370V391H242V9H370V0ZM195 220V510L93 220H195Z" />
<glyph unicode="7;" glyph-name="Ccedilla" horiz-adv-x="628" d="M599 133Q557 66 489 27T340 -12H325V-26Q344 -26 365 -46Q390 -70 390 -102Q390 -132 361 -149T294 -167V-126Q311 -135 331 -135Q377 -135 377 -102Q377 -51 298 -51V-10Q180 5 100 92T19
298Q19 429 109 524T330 619Q411 619 482 582T597 479L570 463Q533 531 469 571T330 610Q218 608 140 517T61 298Q61 173 143 85T339 -3Q413 -3 474 38T571 150L599 133Z" />
<glyph unicode="8;" glyph-name="Egrave" horiz-adv-x="203" d="M107 657L98 647L46 699L56 708L107 657ZM193 0H21V609H174V600H64V400H193V391H64V9H193V0Z" />
<glyph unicode="9;" glyph-name="Eacute" horiz-adv-x="203" d="M156 699L103 647L95 657L146 708L156 699ZM193 0H21V609H174V600H64V400H193V391H64V9H193V0Z" />
<glyph unicode="a;" glyph-name="Ecircumflex" horiz-adv-x="203" d="M159 656L150 646L107 690L64 647L56 657L107 708L159 656ZM193 0H21V609H174V600H64V400H193V391H64V9H193V0Z" />
<glyph unicode="b;" glyph-name="Edieresis" horiz-adv-x="203" d="M154 671Q154 663 147 656T130 648Q121 648 114 655T107 671Q107 695 130 695Q139 695 146 688T154 671ZM93 671Q93 663 86 656T70 648Q46 648 46 671Q46 695 70 695Q78 695 85 688T93 671ZM193
0H21V609H174V600H64V400H193V391H64V9H193V0Z" />
<glyph unicode="c;" glyph-name="Igrave" horiz-adv-x="98" d="M41 657L32 647L-20 699L-10 708L41 657ZM65 0H22V609H65V0Z" />
<glyph unicode="d;" glyph-name="Iacute" horiz-adv-x="98" d="M97 699L44 647L36 657L87 708L97 699ZM65 0H22V609H65V0Z" />
<glyph unicode="e;" glyph-name="Icircumflex" horiz-adv-x="98" d="M91 656L83 646L39 690L-3 647L-12 657L39 708L91 656ZM65 0H22V609H65V0Z" />
<glyph unicode="f;" glyph-name="Idieresis" horiz-adv-x="98" d="M98 671Q98 663 91 656T75 648Q66 648 59 655T51 671Q51 680 58 687T75 695Q83 695 90 688T98 671ZM37 671Q37 663 30 656T14 648Q5 648 -2 655T-10 671Q-10 680 -3 687T14 695Q22 695 29
688T37 671ZM65 0H22V609H65V0Z" />
<glyph unicode="&#xd1;" glyph-name="Ntilde" horiz-adv-x="275" d="M196 690Q184 664 161 663Q153 663 141 670T118 676Q96 675 90 664L82 668Q91 692 117 694Q126 695 139 688T160 680Q182 681 189 693L196 690ZM251 -65L28 515V0H19V657L243 79V609H251V-65Z" />
<glyph unicode="&#xd2;" glyph-name="Ograve" horiz-adv-x="664" d="M337 657L328 647L276 699L285 708L337 657ZM648 308Q648 177 558 83T338 -12Q207 -12 113 78T19 297Q19 428 109 522T329 617Q460 617 554 527T648 308ZM607 308Q607 434 525 522T330 609Q218
607 140 516T61 297Q61 172 143 85T338 -3Q450 -3 528 88T607 308Z" />
<glyph unicode="&#xd3;" glyph-name="Oacute" horiz-adv-x="664" d="M375 699L323 647L314 657L365 708L375 699ZM648 308Q648 177 558 83T338 -12Q207 -12 113 78T19 297Q19 428 109 522T329 617Q460 617 554 527T648 308ZM607 308Q607 434 525 522T330 609Q218
607 140 516T61 297Q61 172 143 85T338 -3Q450 -3 528 88T607 308Z" />
<glyph unicode="&#xd4;" glyph-name="Ocircumflex" horiz-adv-x="664" d="M380 656L371 646L328 690L285 647L277 657L328 708L380 656ZM648 308Q648 177 558 83T338 -12Q207 -12 113 78T19 297Q19 428 109 522T329 617Q460 617 554 527T648 308ZM607 308Q607
434 525 522T330 609Q218 607 140 516T61 297Q61 172 143 85T338 -3Q450 -3 528 88T607 308Z" />
<glyph unicode="&#xd5;" glyph-name="Otilde" horiz-adv-x="664" d="M390 690Q380 664 356 663Q348 663 335 670T313 676Q291 675 285 664L277 668Q286 692 311 694Q321 695 334 688T355 680Q377 681 383 693L390 690ZM648 308Q648 177 558 83T338 -12Q207 -12
113 78T19 297Q19 428 109 522T329 617Q460 617 554 527T648 308ZM607 308Q607 434 525 522T330 609Q218 607 140 516T61 297Q61 172 143 85T338 -3Q450 -3 528 88T607 308Z" />
<glyph unicode="&#xd6;" glyph-name="Odieresis" horiz-adv-x="664" d="M383 671Q383 663 376 656T360 648Q351 648 344 655T337 671Q337 695 360 695Q368 695 375 688T383 671ZM323 671Q323 663 315 656T299 648Q290 648 283 655T276 671Q276 695 299 695Q307
695 315 688T323 671ZM648 308Q648 177 558 83T338 -12Q207 -12 113 78T19 297Q19 428 109 522T329 617Q460 617 554 527T648 308ZM607 308Q607 434 525 522T330 609Q218 607 140 516T61 297Q61 172 143 85T338 -3Q450 -3 528 88T607 308Z" />
<glyph unicode="&#xd8;" glyph-name="Oslash" horiz-adv-x="664" d="M648 308Q648 177 558 83T338 -12Q283 -12 229 7L211 -39L203 -36L219 10Q130 45 76 122Q19 201 19 297Q19 428 109 522T329 617Q386 617 437 599L454 646L463 643L445 596Q535 562 591 485Q648
405 648 308ZM607 308Q607 399 561 474T441 584L233 19Q280 -3 338 -3Q450 -3 528 88T607 308ZM432 588Q386 610 330 609Q218 607 140 516T61 297Q61 207 106 133T224 23L432 588Z" />
<glyph unicode="&#xd9;" glyph-name="Ugrave" horiz-adv-x="245" d="M135 657L126 647L74 699L83 708L135 657ZM225 88Q225 47 196 17T124 -13Q83 -13 53 17T23 88V608H66V88Q66 50 83 25T124 0Q163 0 190 25T217 88V608H225V88Z" />
<glyph unicode="&#xda;" glyph-name="Uacute" horiz-adv-x="245" d="M190 699L138 647L130 657L181 708L190 699ZM225 88Q225 47 196 17T124 -13Q83 -13 53 17T23 88V608H66V88Q66 50 83 25T124 0Q163 0 190 25T217 88V608H225V88Z" />
<glyph unicode="&#xdb;" glyph-name="Ucircumflex" horiz-adv-x="245" d="M185 656L177 646L133 690L90 647L82 657L133 708L185 656ZM225 88Q225 47 196 17T124 -13Q83 -13 53 17T23 88V608H66V88Q66 50 83 25T124 0Q163 0 190 25T217 88V608H225V88Z" />
<glyph unicode="&#xdc;" glyph-name="Udieresis" horiz-adv-x="245" d="M182 671Q182 663 175 656T158 648Q149 648 142 655T135 671Q135 695 158 695Q167 695 174 688T182 671ZM121 671Q121 663 114 656T97 648Q88 648 81 655T74 671Q74 695 97 695Q106 695 113
688T121 671ZM225 88Q225 47 196 17T124 -13Q83 -13 53 17T23 88V608H66V88Q66 50 83 25T124 0Q163 0 190 25T217 88V608H225V88Z" />
<glyph unicode="&#xde;" glyph-name="Thorn" horiz-adv-x="667" d="M597 -62Q597 -98 571 -124T508 -150Q425 -150 393 -61Q331 109 237 109Q112 109 63 -3L54 1Q74 58 123 94T236 130Q303 130 355 83Q402 39 423 -31Q435 -70 459 -98Q487 -131 520 -131Q539 -131
558 -120Q588 -102 588 -62Q588 -28 565 -5T508 18Q506 18 500 18Q495 17 492 17Q525 7 525 -27Q525 -45 512 -58T480 -72Q462 -72 449 -59T435 -27Q435 -6 450 7Q473 27 508 27Q545 27 571 1T597 -62Z" />
<glyph unicode="&#xdf;" glyph-name="germandbls" horiz-adv-x="362" d="M340 199Q340 116 278 51T129 -16V-5Q198 -5 249 57T300 199Q300 243 256 272Q215 294 173 317Q129 344 129 382Q129 422 174 448T219 500Q217 543 191 574T129 599Q97 594 80 558Q65 528
65 487V0H26V60H4V116H26V486Q26 537 54 570T129 609Q176 615 217 580T258 500Q258 463 235 442Q228 436 191 414Q168 401 168 384Q168 359 213 334Q285 295 295 287Q340 251 340 199Z" />
<glyph unicode="&#xe0;" glyph-name="agrave" horiz-adv-x="457" d="M234 448L225 438L173 490L183 499L234 448ZM446 0H402V70Q338 -14 232 -14Q144 -14 81 49T18 200Q18 289 81 351T232 414Q321 414 383 352T446 200V0ZM403 200Q403 285 353 345T232 405Q162
405 112 345T62 200Q62 115 112 55T232 -5Q303 -5 353 55T403 200Z" />
<glyph unicode="&#xe1;" glyph-name="aacute" horiz-adv-x="457" d="M284 494L232 442L223 451L275 503L284 494ZM446 0H402V70Q338 -14 232 -14Q144 -14 81 49T18 200Q18 289 81 351T232 414Q321 414 383 352T446 200V0ZM403 200Q403 285 353 345T232 405Q162
405 112 345T62 200Q62 115 112 55T232 -5Q303 -5 353 55T403 200Z" />
<glyph unicode="&#xe2;" glyph-name="acircumflex" horiz-adv-x="457" d="M283 461L274 451L230 495L188 452L179 462L230 513L283 461ZM446 0H402V70Q338 -14 232 -14Q144 -14 81 49T18 200Q18 289 81 351T232 414Q321 414 383 352T446 200V0ZM403 200Q403 285
353 345T232 405Q162 405 112 345T62 200Q62 115 112 55T232 -5Q303 -5 353 55T403 200Z" />
<glyph unicode="&#xe3;" glyph-name="atilde" horiz-adv-x="457" d="M286 481Q276 456 251 454Q243 453 231 460T209 467Q186 466 181 456L172 459Q181 483 207 485Q216 486 229 479T250 471Q273 472 279 484L286 481ZM446 0H402V70Q338 -14 232 -14Q144 -14 81
49T18 200Q18 289 81 351T232 414Q321 414 383 352T446 200V0ZM403 200Q403 285 353 345T232 405Q162 405 112 345T62 200Q62 115 112 55T232 -5Q303 -5 353 55T403 200Z" />
<glyph unicode="&#xe4;" glyph-name="adieresis" horiz-adv-x="457" d="M286 480Q286 472 279 465T263 457Q239 457 239 480Q239 503 263 503Q271 503 278 496T286 480ZM225 480Q225 472 218 465T202 457Q193 457 186 464T178 480Q178 503 202 503Q210 503 217
496T225 480ZM446 0H402V70Q338 -14 232 -14Q144 -14 81 49T18 200Q18 289 81 351T232 414Q321 414 383 352T446 200V0ZM403 200Q403 285 353 345T232 405Q162 405 112 345T62 200Q62 115 112 55T232 -5Q303 -5 353 55T403 200Z" />
<glyph unicode="&#xe5;" glyph-name="aring" horiz-adv-x="457" d="M279 495Q279 475 265 460T230 445Q210 445 196 460T182 495Q182 515 196 529T230 543Q250 543 264 529T279 495ZM446 0H402V70Q338 -14 232 -14Q144 -14 81 49T18 200Q18 289 81 351T232 414Q321
414 383 352T446 200V0ZM266 495Q266 530 230 530Q195 530 195 495Q195 480 205 469T230 458Q245 458 255 469T266 495ZM403 200Q403 285 353 345T232 405Q162 405 112 345T62 200Q62 115 112 55T232 -5Q303 -5 353 55T403 200Z" />
<glyph unicode="&#xe6;" glyph-name="ae" horiz-adv-x="828" d="M810 104Q782 50 731 18T618 -14Q510 -14 446 73V0H402V70Q338 -14 232 -14Q144 -14 81 49T18 200Q18 289 81 351T232 414Q295 414 346 381T425 292Q452 347 503 380T618 414Q679 414 729 383T807
300L452 155Q465 86 511 41T618 -5Q670 -5 711 28T774 117L810 104ZM770 296Q748 346 708 375T618 405Q548 405 498 345T448 200Q448 188 450 164L770 296ZM403 200Q403 285 353 345T232 405Q162 405 112 345T62 200Q62 115 112 55T232 -5Q303 -5 353 55T403 200Z"
/>
<glyph unicode="&#xe7;" glyph-name="ccedilla" horiz-adv-x="449" d="M422 107Q395 54 344 22T231 -10H221V-26Q240 -26 261 -46Q285 -70 285 -102Q285 -132 254 -151Q227 -167 190 -167V-126Q207 -135 227 -135Q272 -135 272 -102Q272 -51 194 -51V-7Q119 6
69 65T18 203Q18 292 80 354T231 416Q291 416 341 385T419 303L385 288Q364 342 323 374T231 407Q161 407 112 348T62 203Q62 118 111 58T231 -2Q282 -2 324 32T386 120L422 107Z" />
<glyph unicode="&#xe8;" glyph-name="egrave" horiz-adv-x="450" d="M234 448L225 438L173 490L183 499L234 448ZM423 104Q396 51 345 19T232 -14Q144 -14 81 49T18 200Q18 289 81 351T232 414Q293 414 343 383T421 300L66 155Q79 86 125 41T232 -5Q284 -5 325
28T388 117L423 104ZM383 296Q362 346 322 375T232 405Q162 405 112 345T62 200Q62 188 64 164L383 296Z" />
<glyph unicode="&#xe9;" glyph-name="eacute" horiz-adv-x="450" d="M284 494L232 442L223 451L275 503L284 494ZM423 104Q396 51 345 19T232 -14Q144 -14 81 49T18 200Q18 289 81 351T232 414Q293 414 343 383T421 300L66 155Q79 86 125 41T232 -5Q284 -5 325
28T388 117L423 104ZM383 296Q362 346 322 375T232 405Q162 405 112 345T62 200Q62 188 64 164L383 296Z" />
<glyph unicode="&#xea;" glyph-name="ecircumflex" horiz-adv-x="450" d="M283 461L274 451L230 495L188 452L179 462L230 513L283 461ZM423 104Q396 51 345 19T232 -14Q144 -14 81 49T18 200Q18 289 81 351T232 414Q293 414 343 383T421 300L66 155Q79 86 125
41T232 -5Q284 -5 325 28T388 117L423 104ZM383 296Q362 346 322 375T232 405Q162 405 112 345T62 200Q62 188 64 164L383 296Z" />
<glyph unicode="&#xeb;" glyph-name="edieresis" horiz-adv-x="450" d="M286 480Q286 472 279 465T263 457Q239 457 239 480Q239 503 263 503Q271 503 278 496T286 480ZM225 480Q225 472 218 465T202 457Q193 457 186 464T178 480Q178 503 202 503Q210 503 217
496T225 480ZM423 104Q396 51 345 19T232 -14Q144 -14 81 49T18 200Q18 289 81 351T232 414Q293 414 343 383T421 300L66 155Q79 86 125 41T232 -5Q284 -5 325 28T388 117L423 104ZM383 296Q362 346 322 375T232 405Q162 405 112 345T62 200Q62 188 64 164L383
296Z" />
<glyph unicode="&#xec;" glyph-name="igrave" horiz-adv-x="90" d="M51 444L43 435L-10 487L0 496L51 444ZM66 0H22V400H66V0Z" />
<glyph unicode="&#xed;" glyph-name="iacute" horiz-adv-x="90" d="M100 494L48 442L39 451L90 503L100 494ZM66 0H22V400H66V0Z" />
<glyph unicode="&#xee;" glyph-name="icircumflex" horiz-adv-x="90" d="M95 461L86 451L43 495L0 452L-9 462L43 513L95 461ZM66 0H22V400H66V0Z" />
<glyph unicode="&#xef;" glyph-name="idieresis" horiz-adv-x="90" d="M98 480Q98 472 91 465T75 457Q66 457 59 464T51 480Q51 503 75 503Q83 503 90 496T98 480ZM37 480Q37 472 30 465T14 457Q5 457 -2 464T-10 480Q-10 503 14 503Q22 503 29 496T37 480ZM66
0H22V400H66V0Z" />
<glyph unicode="&#xf1;" glyph-name="ntilde" horiz-adv-x="251" d="M184 481Q174 456 150 454Q142 453 129 460T107 467Q84 466 79 456L70 459Q80 483 105 485Q114 486 127 478T149 471Q171 472 177 484L184 481ZM230 0H188V321Q188 353 175 376T144 400Q114
400 92 381T65 331V0H22V399H65V360Q90 409 144 409Q179 409 204 383T230 321V0Z" />
<glyph unicode="&#xf2;" glyph-name="ograve" horiz-adv-x="456" d="M234 448L225 438L173 490L183 499L234 448ZM444 199Q444 111 382 49T231 -14Q143 -14 81 48T18 199Q18 288 80 350T231 412Q320 412 382 350T444 199ZM401 199Q401 284 352 343T231 403Q161
403 112 344T62 199Q62 115 111 55T231 -5Q301 -5 351 55T401 199Z" />
<glyph unicode="&#xf3;" glyph-name="oacute" horiz-adv-x="456" d="M284 494L232 442L223 451L275 503L284 494ZM444 199Q444 111 382 49T231 -14Q143 -14 81 48T18 199Q18 288 80 350T231 412Q320 412 382 350T444 199ZM401 199Q401 284 352 343T231 403Q161
403 112 344T62 199Q62 115 111 55T231 -5Q301 -5 351 55T401 199Z" />
<glyph unicode="&#xf4;" glyph-name="ocircumflex" horiz-adv-x="456" d="M283 461L274 451L230 495L188 452L179 462L230 513L283 461ZM444 199Q444 111 382 49T231 -14Q143 -14 81 48T18 199Q18 288 80 350T231 412Q320 412 382 350T444 199ZM401 199Q401 284
352 343T231 403Q161 403 112 344T62 199Q62 115 111 55T231 -5Q301 -5 351 55T401 199Z" />
<glyph unicode="&#xf5;" glyph-name="otilde" horiz-adv-x="456" d="M286 481Q276 456 251 454Q243 453 231 460T209 467Q186 466 181 456L172 459Q181 483 207 485Q216 486 229 479T250 471Q273 472 279 484L286 481ZM444 199Q444 111 382 49T231 -14Q143 -14
81 48T18 199Q18 288 80 350T231 412Q320 412 382 350T444 199ZM401 199Q401 284 352 343T231 403Q161 403 112 344T62 199Q62 115 111 55T231 -5Q301 -5 351 55T401 199Z" />
<glyph unicode="&#xf6;" glyph-name="odieresis" horiz-adv-x="456" d="M286 480Q286 472 279 465T263 457Q239 457 239 480Q239 503 263 503Q271 503 278 496T286 480ZM225 480Q225 472 218 465T202 457Q193 457 186 464T178 480Q178 503 202 503Q210 503 217
496T225 480ZM444 199Q444 111 382 49T231 -14Q143 -14 81 48T18 199Q18 288 80 350T231 412Q320 412 382 350T444 199ZM401 199Q401 284 352 343T231 403Q161 403 112 344T62 199Q62 115 111 55T231 -5Q301 -5 351 55T401 199Z" />
<glyph unicode="&#xf7;" glyph-name="divide" horiz-adv-x="203" d="M130 358Q130 330 102 330Q73 330 73 358Q73 387 102 387Q130 387 130 358ZM178 260H25V303H178V260ZM130 202Q130 191 122 182T102 173Q90 173 82 182T73 202Q73 230 102 230Q130 230 130 202Z" />
<glyph unicode="&#xf8;" glyph-name="oslash" horiz-adv-x="456" d="M444 199Q444 111 382 49T231 -14Q192 -14 156 0Q145 -28 117 -103L109 -99L147 3Q89 29 54 81T18 199Q18 288 80 350T231 412Q266 412 296 403L337 512L345 509L305 399Q367 376 405 322T444
199ZM401 199Q401 261 373 311T300 386Q231 200 160 13Q196 -5 231 -5Q301 -5 351 55T401 199ZM291 390Q265 403 231 403Q161 403 112 344T62 199Q62 141 86 93T152 18L291 390Z" />
<glyph unicode="&#xf9;" glyph-name="ugrave" horiz-adv-x="216" d="M105 448L97 438L44 490L54 499L105 448ZM188 78Q188 42 163 16T101 -10Q65 -10 39 16T13 78V400H22V78Q22 46 45 23T101 -1Q118 -1 131 22T144 78V400H188V78Z" />
<glyph unicode="&#xfa;" glyph-name="uacute" horiz-adv-x="216" d="M156 494L103 442L95 451L146 503L156 494ZM188 78Q188 42 163 16T101 -10Q65 -10 39 16T13 78V400H22V78Q22 46 45 23T101 -1Q118 -1 131 22T144 78V400H188V78Z" />
<glyph unicode="&#xfb;" glyph-name="ucircumflex" horiz-adv-x="216" d="M150 461L142 451L98 495L56 452L47 462L98 513L150 461ZM188 78Q188 42 163 16T101 -10Q65 -10 39 16T13 78V400H22V78Q22 46 45 23T101 -1Q118 -1 131 22T144 78V400H188V78Z" />
<glyph unicode="&#xfc;" glyph-name="udieresis" horiz-adv-x="216" d="M157 480Q157 472 150 465T134 457Q125 457 118 464T110 480Q110 503 134 503Q142 503 149 496T157 480ZM97 480Q97 472 89 465T73 457Q64 457 57 464T50 480Q50 503 73 503Q82 503 89 496T97
480ZM188 78Q188 42 163 16T101 -10Q65 -10 39 16T13 78V400H22V78Q22 46 45 23T101 -1Q118 -1 131 22T144 78V400H188V78Z" />
<glyph unicode="&#xfe;" glyph-name="thorn" horiz-adv-x="361" d="M503 0Q503 -102 432 -173T258 -245Q157 -245 85 -174T13 0Q13 52 33 97L41 94Q22 48 22 0Q22 -98 91 -167T258 -237Q342 -237 401 -168T460 0Q460 98 401 167T258 237Q180 237 111 185Q81 162
53 163Q10 164 10 201Q10 230 46 249Q76 266 108 266Q116 266 121 265Q91 290 91 329Q91 363 115 387T175 412Q234 412 253 357Q266 349 289 349Q332 349 332 387Q332 416 308 427Q312 419 312 412Q312 386 285 386Q258 386 258 412Q258 439 285 439Q341 439 341
387Q341 366 326 353T289 340Q272 340 257 345Q257 343 258 337Q258 332 258 329Q258 294 234 270T175 245Q153 245 136 256Q124 258 114 258Q89 258 70 246T51 213Q51 183 81 183Q94 183 110 195Q175 245 258 245Q360 245 431 174T503 0ZM215 329Q215 359 203
381T175 403Q159 403 147 381T135 329Q135 299 147 277T175 254Q191 254 203 276T215 329Z" />
<glyph unicode="&#xff;" glyph-name="ydieresis" horiz-adv-x="228" d="M182 480Q182 472 175 465T158 457Q149 457 142 464T135 480Q135 503 158 503Q182 503 182 480ZM121 480Q121 472 114 465T97 457Q88 457 81 464T74 480Q74 503 97 503Q121 503 121 480ZM225
399L77 -210H69L111 -30L9 399H53L135 63L216 399H225Z" />
</font>
</defs>
</svg>
